<svg xmlns="http://www.w3.org/2000/svg" width="40" height="40" fill="none"><path stroke="#FF510E" stroke-linecap="round" stroke-width="2" d="M21.667 30H35m-6.667 6.666V23.333"/><path stroke="#FF510E" stroke-width="2" d="M11.667 12.5v-.834a8.333 8.333 0 0 1 16.666 0v.834"/><path stroke="#FF510E" stroke-linecap="round" stroke-width="2" d="M16.667 36.667c-3.8 0-5.716-.014-7.054-1.208C8.26 34.25 7.918 32.21 7.235 28.13L5.296 16.56c-.315-1.883-.472-2.824.013-3.442.485-.618 1.382-.618 3.176-.618h23.03c1.794 0 2.69 0 3.176.618.485.618.328 1.56.013 3.441L34.127 20M7.5 29.166h9.167"/></svg>