<svg xmlns="http://www.w3.org/2000/svg" width="249" height="30" fill="none"><path fill="#D0D0D0" d="M.787 28.213a.5.5 0 1 0 .426.905l-.426-.904ZM249 28.666l-3.307-4.733-2.445 5.23 5.752-.497Zm-247.787.452c.602-.284 1.205-.566 1.81-.846l-.42-.907c-.607.28-1.212.564-1.816.849l.426.904Zm5.447-2.5a289.78 289.78 0 0 1 3.66-1.605l-.396-.918a288.903 288.903 0 0 0-3.672 1.61l.408.912ZM14 23.46c1.23-.509 2.465-1.01 3.704-1.502l-.37-.93c-1.243.495-2.481.997-3.715 1.508l.382.924Zm7.427-2.953c1.243-.475 2.49-.941 3.742-1.4l-.343-.938c-1.256.46-2.508.927-3.756 1.404l.357.934Zm7.504-2.746c1.256-.44 2.517-.872 3.78-1.295l-.317-.948c-1.268.424-2.533.857-3.793 1.299l.33.944Zm7.578-2.537c1.268-.405 2.54-.802 3.815-1.19l-.291-.956c-1.28.389-2.556.787-3.828 1.193l.304.953Zm7.645-2.326c1.279-.37 2.56-.731 3.846-1.083l-.264-.965c-1.29.354-2.576.716-3.86 1.087l.278.96Zm7.707-2.113c1.288-.334 2.58-.66 3.875-.977l-.238-.971c-1.3.318-2.595.644-3.888.98l.251.968Zm7.763-1.9a310.48 310.48 0 0 1 3.9-.868l-.21-.977c-1.309.281-2.613.572-3.914.871l.224.975Zm7.812-1.682c1.304-.262 2.612-.516 3.922-.76l-.183-.984c-1.315.246-2.627.5-3.936.763l.197.98Zm7.855-1.467c1.312-.226 2.626-.443 3.943-.652l-.157-.987c-1.321.209-2.64.427-3.956.654l.17.985Zm7.894-1.249c1.316-.19 2.636-.37 3.958-.543l-.129-.991c-1.327.172-2.65.354-3.972.544l.142.99Zm7.924-1.031c1.321-.154 2.645-.298 3.972-.434l-.102-.995c-1.33.136-2.66.281-3.985.435l.115.994Zm7.95-.814c1.325-.117 2.652-.225 3.982-.325l-.074-.997c-1.335.1-2.667.209-3.996.326l.088.996Zm7.969-.595c1.328-.081 2.658-.153 3.99-.216l-.047-1a293.77 293.77 0 0 0-4.004.218l.061.998Zm7.982-.378c1.33-.045 2.661-.081 3.995-.108l-.02-1c-1.339.027-2.675.063-4.008.108l.033 1Zm7.99-.162a296.74 296.74 0 0 1 2-.007v-1c-.669 0-1.338.002-2.006.007l.006 1Zm2-.007c.667 0 1.334.002 2 .007l.006-1A297.53 297.53 0 0 0 125 .5v1Zm5.995.06c1.334.028 2.665.064 3.995.109l.033-1a295.512 295.512 0 0 0-4.008-.108l-.02 1Zm7.987.27c1.332.064 2.662.136 3.99.217l.061-.998a294.504 294.504 0 0 0-4.004-.217l-.047.999Zm7.977.487c1.33.1 2.657.208 3.982.325l.088-.996a292.02 292.02 0 0 0-3.996-.326l-.074.997Zm7.96.705c1.327.136 2.651.28 3.972.434l.115-.994a288.844 288.844 0 0 0-3.985-.435l-.102.995Zm7.938.922c1.322.172 2.642.353 3.959.543l.142-.99c-1.321-.19-2.645-.372-3.972-.544l-.129.991Zm7.909 1.14c1.317.209 2.632.426 3.943.652l.17-.985a293.36 293.36 0 0 0-3.956-.654l-.157.987Zm7.875 1.358c1.311.245 2.619.499 3.923.76l.197-.98a291.04 291.04 0 0 0-3.936-.763l-.184.983Zm7.835 1.575c1.303.281 2.603.57 3.9.869l.224-.975c-1.301-.299-2.605-.59-3.913-.871l-.211.977Zm7.788 1.791c1.295.317 2.587.643 3.875.977l.251-.968a292.834 292.834 0 0 0-3.888-.98l-.238.971Zm7.735 2.007c1.286.352 2.568.713 3.847 1.083l.277-.96a278.744 278.744 0 0 0-3.859-1.088l-.265.965Zm7.677 2.22c1.276.387 2.547.784 3.815 1.189l.304-.953a286.508 286.508 0 0 0-3.828-1.193l-.291.956Zm7.613 2.431c1.264.423 2.524.855 3.78 1.295l.33-.944c-1.26-.442-2.525-.875-3.793-1.3l-.317.949Zm7.542 2.642c1.251.458 2.499.924 3.742 1.399l.357-.934c-1.248-.477-2.5-.945-3.756-1.404l-.343.939Zm7.465 2.85c1.239.492 2.473.993 3.703 1.502l.382-.924a284.11 284.11 0 0 0-3.715-1.507l-.37.929Zm7.385 3.055a288.37 288.37 0 0 1 3.659 1.604l.408-.913a293.894 293.894 0 0 0-3.672-1.61l-.395.92ZM.787 28.213a.5.5 0 1 0 .426.905l-.426-.904ZM249 28.666l-3.307-4.733-2.445 5.23 5.752-.497Zm-247.787.452c.602-.284 1.205-.566 1.81-.846l-.42-.907c-.607.28-1.212.564-1.816.849l.426.904Zm5.447-2.5a289.78 289.78 0 0 1 3.66-1.605l-.396-.918a288.903 288.903 0 0 0-3.672 1.61l.408.912ZM14 23.46c1.23-.509 2.465-1.01 3.704-1.502l-.37-.93c-1.243.495-2.481.997-3.715 1.508l.382.924Zm7.427-2.953c1.243-.475 2.49-.941 3.742-1.4l-.343-.938c-1.256.46-2.508.927-3.756 1.404l.357.934Zm7.504-2.746c1.256-.44 2.517-.872 3.78-1.295l-.317-.948c-1.268.424-2.533.857-3.793 1.299l.33.944Zm7.578-2.537c1.268-.405 2.54-.802 3.815-1.19l-.291-.956c-1.28.389-2.556.787-3.828 1.193l.304.953Zm7.645-2.326c1.279-.37 2.56-.731 3.846-1.083l-.264-.965c-1.29.354-2.576.716-3.86 1.087l.278.96Zm7.707-2.113c1.288-.334 2.58-.66 3.875-.977l-.238-.971c-1.3.318-2.595.644-3.888.98l.251.968Zm7.763-1.9a310.48 310.48 0 0 1 3.9-.868l-.21-.977c-1.309.281-2.613.572-3.914.871l.224.975Zm7.812-1.682c1.304-.262 2.612-.516 3.922-.76l-.183-.984c-1.315.246-2.627.5-3.936.763l.197.98Zm7.855-1.467c1.312-.226 2.626-.443 3.943-.652l-.157-.987c-1.321.209-2.64.427-3.956.654l.17.985Zm7.894-1.249c1.316-.19 2.636-.37 3.958-.543l-.129-.991c-1.327.172-2.65.354-3.972.544l.142.99Zm7.924-1.031c1.321-.154 2.645-.298 3.972-.434l-.102-.995c-1.33.136-2.66.281-3.985.435l.115.994Zm7.95-.814c1.325-.117 2.652-.225 3.982-.325l-.074-.997c-1.335.1-2.667.209-3.996.326l.088.996Zm7.969-.595c1.328-.081 2.658-.153 3.99-.216l-.047-1a293.77 293.77 0 0 0-4.004.218l.061.998Zm7.982-.378c1.33-.045 2.661-.081 3.995-.108l-.02-1c-1.339.027-2.675.063-4.008.108l.033 1Zm7.99-.162a296.74 296.74 0 0 1 2-.007v-1c-.669 0-1.338.002-2.006.007l.006 1Zm2-.007c.667 0 1.334.002 2 .007l.006-1A297.53 297.53 0 0 0 125 .5v1Zm5.995.06c1.334.028 2.665.064 3.995.109l.033-1a295.512 295.512 0 0 0-4.008-.108l-.02 1Zm7.987.27c1.332.064 2.662.136 3.99.217l.061-.998a294.504 294.504 0 0 0-4.004-.217l-.047.999Zm7.977.487c1.33.1 2.657.208 3.982.325l.088-.996a292.02 292.02 0 0 0-3.996-.326l-.074.997Zm7.96.705c1.327.136 2.651.28 3.972.434l.115-.994a288.844 288.844 0 0 0-3.985-.435l-.102.995Zm7.938.922c1.322.172 2.642.353 3.959.543l.142-.99c-1.321-.19-2.645-.372-3.972-.544l-.129.991Zm7.909 1.14c1.317.209 2.632.426 3.943.652l.17-.985a293.36 293.36 0 0 0-3.956-.654l-.157.987Zm7.875 1.358c1.311.245 2.619.499 3.923.76l.197-.98a291.04 291.04 0 0 0-3.936-.763l-.184.983Zm7.835 1.575c1.303.281 2.603.57 3.9.869l.224-.975c-1.301-.299-2.605-.59-3.913-.871l-.211.977Zm7.788 1.791c1.295.317 2.587.643 3.875.977l.251-.968a292.834 292.834 0 0 0-3.888-.98l-.238.971Zm7.735 2.007c1.286.352 2.568.713 3.847 1.083l.277-.96a278.744 278.744 0 0 0-3.859-1.088l-.265.965Zm7.677 2.22c1.276.387 2.547.784 3.815 1.189l.304-.953a286.508 286.508 0 0 0-3.828-1.193l-.291.956Zm7.613 2.431c1.264.423 2.524.855 3.78 1.295l.33-.944c-1.26-.442-2.525-.875-3.793-1.3l-.317.949Zm7.542 2.642c1.251.458 2.499.924 3.742 1.399l.357-.934c-1.248-.477-2.5-.945-3.756-1.404l-.343.939Zm7.465 2.85c1.239.492 2.473.993 3.703 1.502l.382-.924a284.11 284.11 0 0 0-3.715-1.507l-.37.929Zm7.385 3.055a288.37 288.37 0 0 1 3.659 1.604l.408-.913a293.894 293.894 0 0 0-3.672-1.61l-.395.92Z"/></svg>