<svg xmlns="http://www.w3.org/2000/svg" width="249" height="30" fill="none"><path fill="#D0D0D0" d="m249 1.334-5.752-.497 2.445 5.23L249 1.334Zm-5.66 2.049a287.088 287.088 0 0 1-3.659 1.604l.395.918a294.782 294.782 0 0 0 3.672-1.61l-.408-.912Zm-7.341 3.157c-1.23.509-2.464 1.01-3.703 1.502l.37.93c1.243-.495 2.481-.997 3.715-1.508l-.382-.924Zm-7.426 2.953c-1.243.475-2.491.941-3.742 1.4l.343.938a286.23 286.23 0 0 0 3.756-1.404l-.357-.934Zm-7.504 2.746c-1.256.44-2.516.872-3.78 1.295l.317.948c1.268-.424 2.533-.857 3.793-1.299l-.33-.944Zm-7.578 2.537a286.02 286.02 0 0 1-3.815 1.19l.291.956c1.28-.389 2.556-.787 3.828-1.193l-.304-.953Zm-7.645 2.326c-1.279.37-2.561.731-3.847 1.084l.265.964c1.29-.354 2.576-.716 3.859-1.087l-.277-.96Zm-7.707 2.113c-1.288.334-2.58.66-3.875.977l.238.971a283.24 283.24 0 0 0 3.888-.98l-.251-.968Zm-7.763 1.9a310.48 310.48 0 0 1-3.9.868l.211.977c1.308-.282 2.612-.572 3.913-.871l-.224-.975Zm-7.812 1.682c-1.304.262-2.612.516-3.923.76l.184.984c1.315-.246 2.627-.5 3.936-.763l-.197-.98Zm-7.855 1.467c-1.311.226-2.626.443-3.943.652l.157.987a288.53 288.53 0 0 0 3.956-.654l-.17-.985Zm-7.893 1.249c-1.317.19-2.637.37-3.959.543l.129.991c1.327-.172 2.651-.354 3.972-.544l-.142-.99Zm-7.925 1.031c-1.321.154-2.645.298-3.972.434l.102.995a290.4 290.4 0 0 0 3.985-.435l-.115-.994Zm-7.95.814c-1.325.117-2.652.225-3.982.325l.074.997c1.335-.1 2.667-.209 3.996-.326l-.088-.996Zm-7.969.595c-1.328.081-2.658.153-3.99.216l.047 1a293.77 293.77 0 0 0 4.004-.218l-.061-.998Zm-7.982.378c-1.33.045-2.661.081-3.995.108l.02 1c1.339-.027 2.675-.063 4.008-.108l-.033-1Zm-7.99.162c-.666.005-1.333.007-2 .007v1c.669 0 1.338-.002 2.006-.007l-.006-1Zm-2 .007c-.667 0-1.334-.002-2-.007l-.006 1c.668.005 1.337.007 2.006.007v-1Zm-5.995-.06a295.75 295.75 0 0 1-3.995-.109l-.033 1c1.333.045 2.669.081 4.008.108l.02-1Zm-7.987-.27a294.211 294.211 0 0 1-3.99-.217l-.061.998c1.332.082 2.667.154 4.004.217l.047-.999Zm-7.977-.487c-1.33-.1-2.657-.208-3.982-.325l-.088.996c1.329.117 2.661.226 3.996.326l.074-.997Zm-7.96-.705a291.12 291.12 0 0 1-3.972-.434l-.115.994c1.325.154 2.654.299 3.985.435l.102-.995Zm-7.938-.922a290.66 290.66 0 0 1-3.959-.543l-.142.99c1.321.19 2.645.372 3.972.544l.13-.991Zm-7.91-1.14a290.394 290.394 0 0 1-3.942-.652l-.17.985c1.316.227 2.635.445 3.956.654l.157-.987Zm-7.874-1.358a295.353 295.353 0 0 1-3.923-.76l-.197.98c1.309.263 2.62.517 3.936.763l.184-.983Zm-7.835-1.575c-1.303-.281-2.604-.57-3.9-.869l-.224.975c1.3.299 2.605.59 3.913.871l.21-.977Zm-7.788-1.791a288.272 288.272 0 0 1-3.875-.977l-.25.968c1.292.336 2.588.662 3.887.98l.238-.971ZM48 18.186a289.058 289.058 0 0 1-3.847-1.084l-.277.96c1.282.372 2.569.734 3.86 1.088l.264-.964Zm-7.677-2.22a289.772 289.772 0 0 1-3.815-1.19l-.304.953c1.272.406 2.548.804 3.828 1.194l.29-.957Zm-7.613-2.432a288.92 288.92 0 0 1-3.78-1.295l-.33.944c1.26.441 2.525.875 3.793 1.3l.317-.949Zm-7.542-2.642a284.11 284.11 0 0 1-3.742-1.399l-.357.934c1.248.477 2.5.945 3.756 1.404l.343-.939Zm-7.466-2.85A288.93 288.93 0 0 1 14 6.54l-.383.924c1.235.51 2.473 1.013 3.716 1.507l.37-.929ZM10.32 4.987a289.145 289.145 0 0 1-3.66-1.604l-.407.913a289.97 289.97 0 0 0 3.672 1.61l.395-.92ZM3.023 1.728c-.605-.28-1.208-.562-1.81-.846l-.426.905c.604.285 1.209.567 1.815.848l.42-.907ZM249 1.334l-5.752-.497 2.445 5.23L249 1.334Zm-5.66 2.049a287.088 287.088 0 0 1-3.659 1.604l.395.918a294.782 294.782 0 0 0 3.672-1.61l-.408-.912Zm-7.341 3.157c-1.23.509-2.464 1.01-3.703 1.502l.37.93c1.243-.495 2.481-.997 3.715-1.508l-.382-.924Zm-7.426 2.953c-1.243.475-2.491.941-3.742 1.4l.343.938a286.23 286.23 0 0 0 3.756-1.404l-.357-.934Zm-7.504 2.746c-1.256.44-2.516.872-3.78 1.295l.317.948c1.268-.424 2.533-.857 3.793-1.299l-.33-.944Zm-7.578 2.537a286.02 286.02 0 0 1-3.815 1.19l.291.956c1.28-.389 2.556-.787 3.828-1.193l-.304-.953Zm-7.645 2.326c-1.279.37-2.561.731-3.847 1.084l.265.964c1.29-.354 2.576-.716 3.859-1.087l-.277-.96Zm-7.707 2.113c-1.288.334-2.58.66-3.875.977l.238.971a283.24 283.24 0 0 0 3.888-.98l-.251-.968Zm-7.763 1.9a310.48 310.48 0 0 1-3.9.868l.211.977c1.308-.282 2.612-.572 3.913-.871l-.224-.975Zm-7.812 1.682c-1.304.262-2.612.516-3.923.76l.184.984c1.315-.246 2.627-.5 3.936-.763l-.197-.98Zm-7.855 1.467c-1.311.226-2.626.443-3.943.652l.157.987a288.53 288.53 0 0 0 3.956-.654l-.17-.985Zm-7.893 1.249c-1.317.19-2.637.37-3.959.543l.129.991c1.327-.172 2.651-.354 3.972-.544l-.142-.99Zm-7.925 1.031c-1.321.154-2.645.298-3.972.434l.102.995a290.4 290.4 0 0 0 3.985-.435l-.115-.994Zm-7.95.814c-1.325.117-2.652.225-3.982.325l.074.997c1.335-.1 2.667-.209 3.996-.326l-.088-.996Zm-7.969.595c-1.328.081-2.658.153-3.99.216l.047 1a293.77 293.77 0 0 0 4.004-.218l-.061-.998Zm-7.982.378c-1.33.045-2.661.081-3.995.108l.02 1c1.339-.027 2.675-.063 4.008-.108l-.033-1Zm-7.99.162c-.666.005-1.333.007-2 .007v1c.669 0 1.338-.002 2.006-.007l-.006-1Zm-2 .007c-.667 0-1.334-.002-2-.007l-.006 1c.668.005 1.337.007 2.006.007v-1Zm-5.995-.06a295.75 295.75 0 0 1-3.995-.109l-.033 1c1.333.045 2.669.081 4.008.108l.02-1Zm-7.987-.27a294.211 294.211 0 0 1-3.99-.217l-.061.998c1.332.082 2.667.154 4.004.217l.047-.999Zm-7.977-.487c-1.33-.1-2.657-.208-3.982-.325l-.088.996c1.329.117 2.661.226 3.996.326l.074-.997Zm-7.96-.705a291.12 291.12 0 0 1-3.972-.434l-.115.994c1.325.154 2.654.299 3.985.435l.102-.995Zm-7.938-.922a290.66 290.66 0 0 1-3.959-.543l-.142.99c1.321.19 2.645.372 3.972.544l.13-.991Zm-7.91-1.14a290.394 290.394 0 0 1-3.942-.652l-.17.985c1.316.227 2.635.445 3.956.654l.157-.987Zm-7.874-1.358a295.353 295.353 0 0 1-3.923-.76l-.197.98c1.309.263 2.62.517 3.936.763l.184-.983Zm-7.835-1.575c-1.303-.281-2.604-.57-3.9-.869l-.224.975c1.3.299 2.605.59 3.913.871l.21-.977Zm-7.788-1.791a288.272 288.272 0 0 1-3.875-.977l-.25.968c1.292.336 2.588.662 3.887.98l.238-.971ZM48 18.186a289.058 289.058 0 0 1-3.847-1.084l-.277.96c1.282.372 2.569.734 3.86 1.088l.264-.964Zm-7.677-2.22a289.772 289.772 0 0 1-3.815-1.19l-.304.953c1.272.406 2.548.804 3.828 1.194l.29-.957Zm-7.613-2.432a288.92 288.92 0 0 1-3.78-1.295l-.33.944c1.26.441 2.525.875 3.793 1.3l.317-.949Zm-7.542-2.642a284.11 284.11 0 0 1-3.742-1.399l-.357.934c1.248.477 2.5.945 3.756 1.404l.343-.939Zm-7.466-2.85A288.93 288.93 0 0 1 14 6.54l-.383.924c1.235.51 2.473 1.013 3.716 1.507l.37-.929ZM10.32 4.987a289.145 289.145 0 0 1-3.66-1.604l-.407.913a289.97 289.97 0 0 0 3.672 1.61l.395-.92ZM3.023 1.728c-.605-.28-1.208-.562-1.81-.846l-.426.905c.604.285 1.209.567 1.815.848l.42-.907Z"/></svg>